<?xml version="1.0" standalone="no"?>
<!DOCTYPE svg PUBLIC "-//W3C//DTD SVG 20010904//EN"
 "http://www.w3.org/TR/2001/REC-SVG-20010904/DTD/svg10.dtd">
<svg version="1.0" xmlns="http://www.w3.org/2000/svg"
 width="1080.000000pt" height="1080.000000pt" viewBox="0 0 1080.000000 1080.000000"
 preserveAspectRatio="xMidYMid meet">
<metadata>
Created by potrace 1.11, written by Peter Selinger 2001-2013
</metadata>
<g transform="translate(0.000000,1080.000000) scale(0.100000,-0.100000)"
fill="#000000" stroke="none">
<path d="M2036 9383 c-3 -16 -8 -100 -11 -188 -3 -88 -8 -182 -10 -210 -2 -27
-7 -108 -10 -180 -3 -71 -7 -164 -10 -205 -2 -41 -6 -133 -10 -205 -3 -71 -8
-166 -10 -210 -5 -81 -13 -238 -20 -375 -2 -42 -6 -135 -10 -208 l-6 -132 115
0 c113 0 116 1 118 23 0 12 2 27 3 32 1 6 5 42 9 80 32 291 121 552 257 755
156 231 397 416 612 466 51 12 65 15 97 20 19 3 45 7 56 9 20 3 44 6 174 22
25 3 354 7 733 10 l687 5 0 -89 c2 -486 -1 -1886 -5 -1913 -2 -19 -6 -55 -9
-80 -12 -109 -82 -278 -159 -380 -78 -105 -143 -163 -376 -338 -129 -96 -262
-202 -295 -236 -130 -130 -131 -220 -6 -346 78 -79 154 -136 410 -307 124 -83
302 -210 395 -282 252 -196 262 -203 485 -354 386 -262 493 -363 504 -474 10
-92 -94 -205 -359 -393 -299 -212 -421 -334 -494 -495 -13 -27 -27 -59 -32
-70 -34 -75 -50 -186 -54 -370 -7 -347 -15 -600 -19 -625 -3 -14 -7 -47 -10
-75 -37 -314 -107 -447 -296 -570 -80 -51 -141 -77 -245 -104 -102 -27 -197
-35 -422 -35 l-183 -1 0 -112 0 -113 1755 0 1755 0 0 110 c0 81 -3 110 -12
111 -7 1 -105 2 -218 4 -275 4 -422 30 -561 101 -214 108 -297 235 -339 520
-6 43 -13 89 -15 102 -18 110 -26 738 -11 847 4 28 8 57 8 65 0 8 5 21 11 28
5 6 7 12 3 12 -3 0 0 15 7 33 8 17 15 37 16 42 8 39 15 55 24 55 6 0 7 3 4 6
-17 18 94 183 184 274 79 80 104 99 398 310 183 131 274 226 276 290 0 8 4 21
8 28 5 7 4 12 -2 12 -6 0 -10 3 -10 8 1 4 0 9 -1 12 -1 3 -3 13 -5 22 -11 56
-127 174 -286 291 -57 42 -108 80 -114 84 -5 5 -55 38 -110 75 -163 109 -254
174 -312 223 -50 41 -310 243 -358 277 -27 19 -135 93 -240 163 -104 70 -192
131 -195 135 -3 3 -12 11 -21 16 -36 20 -132 107 -193 174 -17 19 -44 79 -47
105 -3 30 12 95 23 95 5 0 7 4 4 8 -3 5 18 34 47 64 78 83 148 139 407 325 91
66 205 171 265 244 47 58 115 172 115 194 0 8 5 15 10 15 6 0 10 6 10 14 0 8
5 27 11 43 7 15 13 35 14 43 2 8 10 39 18 68 8 28 10 52 5 52 -5 0 -6 6 -1 13
4 6 9 19 11 27 1 8 3 466 3 1018 l1 1003 712 -4 c391 -2 722 -6 736 -9 14 -4
50 -9 80 -12 217 -25 463 -122 625 -249 114 -89 236 -225 296 -332 12 -22 33
-59 46 -82 56 -98 122 -329 157 -548 9 -55 18 -111 20 -125 3 -14 5 -33 5 -42
1 -16 13 -18 116 -18 111 0 119 2 117 30 0 3 -3 73 -6 155 -7 164 -13 294 -20
425 -5 78 -10 190 -21 440 -3 52 -7 149 -10 215 -6 118 -8 169 -21 415 -4 69
-8 152 -9 185 -1 33 -3 63 -4 68 0 4 -1519 7 -3375 7 l-3374 0 -6 -27z"/>
</g>
</svg>
